<?xml version="1.0" encoding="utf-8"?>
<!-- Generator: Adobe Illustrator 23.0.1, SVG Export Plug-In . SVG Version: 6.00 Build 0)  -->
<svg version="1.1" id="Layer_1" xmlns="http://www.w3.org/2000/svg" xmlns:xlink="http://www.w3.org/1999/xlink" x="0px" y="0px"
	 viewBox="0 0 428.14 432.8" style="enable-background:new 0 0 428.14 432.8;" xml:space="preserve">
<style type="text/css">
	.st0{fill:#FFFFFF;}
</style>
<path class="st0" d="M213.16,18.96c106.35-0.29,196.28,85.63,199.14,194.22c2.87,109.13-83.07,199.41-189.01,204.44
	C106.49,423.18,17.02,330.56,13.69,224.9C10.18,113.23,100.45,18.69,213.16,18.96z M37.97,218.15
	c0.89,97.11,76.61,173.78,170.89,176.13c96.24,2.39,178.25-75.35,178.99-174.98c0.7-95.25-76.61-175.55-171.62-176.79
	C118.4,41.24,39.35,119.12,37.97,218.15z"/>
<path class="st0" d="M171.38,217.53c-10.77,0-20.72,0-30.87,0c0-15.88,0-31.42,0-47.76c3.62,0,7.17-0.01,10.72,0
	c4.93,0.01,9.86,0.07,14.79,0.03c4.68-0.03,5.28-0.62,5.31-5.35c0.06-12.66-0.22-25.33,0.16-37.98
	c0.82-27.28,21.84-48.01,49.23-48.78c19.58-0.55,39.17-0.87,58.75-1.47c3.57-0.11,4.83,0.71,4.77,4.56
	c-0.24,14.77-0.1,29.54-0.1,44.74c-2.46,0.13-4.67,0.33-6.88,0.36c-9.46,0.12-18.93-0.08-28.37,0.38
	c-7.8,0.38-12.44,4.7-12.88,12.57c-0.55,10.06-0.13,20.18-0.13,30.75c16.35,0,32.38,0,48.86,0c-2.04,16.19-4.02,31.85-6.04,47.86
	c-14.38,0-28.57,0-43.26,0c0,47.31,0,94.25,0,141.35c-21.51,0-42.51,0-64.06,0C171.38,311.74,171.38,264.94,171.38,217.53z"/>
</svg>
