<?xml version="1.0" encoding="utf-8"?>
<!-- Generator: Adobe Illustrator 23.0.1, SVG Export Plug-In . SVG Version: 6.00 Build 0)  -->
<svg version="1.1" id="Layer_1" xmlns="http://www.w3.org/2000/svg" xmlns:xlink="http://www.w3.org/1999/xlink" x="0px" y="0px"
	 viewBox="0 0 139.08 139.08" style="enable-background:new 0 0 139.08 139.08;" xml:space="preserve">
<style type="text/css">
	.st0{fill-rule:evenodd;clip-rule:evenodd;fill:#00A1E4;}
	.st1{fill:#FFFFFF;}
	.st2{fill-rule:evenodd;clip-rule:evenodd;fill:#FFCB05;}
	.st3{fill-rule:evenodd;clip-rule:evenodd;fill:#FFFFFF;}
</style>
<g>
	<polygon class="st0" points="0,0 139.08,0 139.08,139.08 0,139.08 0,0 	"/>
	<polygon class="st1" points="23.33,116.89 23.33,104.02 23.51,104.02 27.11,104.02 27.11,108.06 29.92,104.02 30.11,104.02 
		34.33,104.02 29.87,109.8 35.35,116.89 35.16,116.89 30.66,116.89 27.11,111.63 27.11,116.89 26.93,116.89 23.33,116.89 	"/>
	<polygon class="st1" points="36.26,104.02 39.73,104.02 39.73,111.46 44.53,104.02 44.71,104.02 48.24,104.02 48.24,116.89 
		48.06,116.89 44.58,116.89 44.58,109.46 39.86,116.89 39.68,116.89 36.07,116.89 36.07,104.02 36.26,104.02 	"/>
	<polygon class="st1" points="51.22,116.89 51.22,104.02 51.4,104.02 55,104.02 55,116.89 54.82,116.89 51.22,116.89 	"/>
	<path class="st1" d="M57.98,104.02h6.23c1.16,0,2.02,0.21,2.55,0.62c0.54,0.42,0.89,0.88,1.07,1.38c0.09,0.23,0.14,0.46,0.17,0.67
		c0.03,0.21,0.05,0.41,0.05,0.6c0,0.66-0.2,1.23-0.6,1.69c-0.4,0.47-0.87,0.8-1.41,0.99v0.04c0.15,0.04,0.32,0.09,0.53,0.17
		c0.21,0.07,0.42,0.18,0.64,0.31c0.38,0.23,0.73,0.57,1.06,1.01c0.32,0.44,0.49,1.04,0.49,1.8c0,0.07,0,0.14-0.01,0.21
		c-0.01,0.07-0.01,0.14-0.01,0.21c-0.09,0.78-0.45,1.51-1.1,2.17c-0.65,0.66-1.68,0.99-3.09,0.99h-0.18H57.8v-12.87H57.98
		L57.98,104.02z M61.59,114.31h1.47c0.1,0,0.23,0,0.39-0.01c0.16-0.01,0.32-0.03,0.48-0.06c0.27-0.06,0.51-0.19,0.74-0.38
		c0.22-0.19,0.33-0.49,0.33-0.91c0-0.4-0.11-0.7-0.34-0.87c-0.23-0.18-0.47-0.3-0.73-0.36c-0.15-0.02-0.29-0.04-0.43-0.05
		c-0.14-0.01-0.26-0.01-0.36-0.01h-1.54V114.31L61.59,114.31z M61.59,109.09h1.32c0.53,0,0.91-0.08,1.14-0.25
		c0.23-0.17,0.39-0.35,0.46-0.56c0.02-0.07,0.04-0.14,0.05-0.21c0.01-0.07,0.01-0.13,0.01-0.19c0-0.33-0.12-0.63-0.36-0.89
		c-0.24-0.26-0.67-0.4-1.3-0.4h-1.32V109.09L61.59,109.09z"/>
	<polygon class="st1" points="85.48,116.89 85.48,107.55 81.9,107.55 81.9,104.02 82.08,104.02 92.84,104.02 92.84,107.55 
		89.26,107.55 89.26,116.89 89.08,116.89 85.66,116.89 85.48,116.89 	"/>
	<path class="st1" d="M91.1,116.89l4.58-12.87h0.18h4.37l4.56,12.87h-0.18h-3.86l-0.7-2.22h-4.19l-0.72,2.22h-0.18H91.1L91.1,116.89
		z M97.96,107.29l-1.38,4.54h2.76L97.96,107.29L97.96,107.29z"/>
	<path class="st1" d="M105.46,116.89v-12.87h0.18h5.42c1.37,0,2.4,0.29,3.08,0.88c0.68,0.59,1.14,1.24,1.37,1.95
		c0.09,0.26,0.15,0.51,0.18,0.76c0.04,0.25,0.06,0.79,0.06,1.01s-0.02,0.46-0.06,0.71c-0.04,0.25-0.1,0.5-0.18,0.76
		c-0.22,0.71-0.67,1.36-1.36,1.96c-0.69,0.59-1.72,0.89-3.09,0.89h-1.82v3.94h-0.18H105.46L105.46,116.89z M109.25,106.85v3.26h0.85
		c0.53,0,0.91-0.09,1.16-0.26c0.24-0.17,0.42-0.35,0.5-0.55c0.05-0.13,0.08-0.26,0.09-0.39c0.01-0.12,0.02-0.22,0.02-0.29
		s0-0.45-0.01-0.52c-0.01-0.07-0.02-0.15-0.03-0.22c-0.06-0.26-0.21-0.49-0.46-0.71c-0.25-0.21-0.67-0.32-1.27-0.32H109.25
		L109.25,106.85z"/>
	<path class="st1" d="M76.45,117.26l-0.1,0h0l-0.1,0h0l-0.1,0h-0.01c-2.1-0.06-3.71-0.74-4.83-2.04c-0.97-1.13-1.54-2.41-1.71-3.84
		l0-0.01l-0.01-0.08l0-0.01l-0.01-0.08l0,0l-0.01-0.08c-0.01-0.08-0.01-0.16-0.02-0.25l0,0l0-0.08v0l0-0.08v0l0-0.08v0l0-0.08v0
		l0-0.08l0-0.08v0l0-0.08v0l0-0.08v0l0-0.08v0l0-0.08l0,0c0-0.08,0.01-0.17,0.02-0.25l0.01-0.08l0-0.01l0.01-0.08l0-0.01l0.01-0.08
		l0-0.01c0.17-1.44,0.74-2.72,1.71-3.85c1.12-1.3,2.73-1.97,4.83-2.04h0.01l0.1,0h0l0.1,0h0l0.1,0l0.18,0.02
		c0.51,0,0.99,0.04,1.44,0.11c1.49,0.28,2.54,1,3.43,2.06c0.06,0.07,0.12,0.15,0.18,0.23l-2.6,2.09c-0.05-0.07-0.1-0.14-0.16-0.21
		c-0.48-0.55-1-0.9-1.58-1.07h0l-0.03-0.01c-0.13-0.05-0.27-0.08-0.4-0.1c-0.08-0.01-0.15-0.02-0.23-0.02l-0.01,0l-0.01,0h0l-0.01,0
		h0l0,0h0l-0.01,0h0h0l-0.01,0l0,0l-0.01,0h0h-0.01l-0.01,0l-0.02,0h0l-0.02,0l-0.01,0l-0.02,0h0l0,0l-0.01,0h0h-0.01l0,0l-0.01,0
		l-0.01,0h0l-0.02,0h0c-0.12,0-0.25,0.01-0.38,0.04c-0.1,0.02-0.2,0.04-0.3,0.07l-0.01,0l-0.01,0l-0.01,0h0l-0.01,0l0,0l-0.01,0h0
		l-0.01,0h0l-0.01,0l0,0l-0.01,0h0l-0.01,0h0l-0.01,0l0,0l-0.01,0l-0.01,0l-0.01,0l-0.01,0l-0.01,0l-0.01,0l-0.01,0
		c-0.56,0.17-1.08,0.54-1.55,1.09c-0.47,0.56-0.71,1.38-0.71,2.47s0.24,1.91,0.71,2.47c0.47,0.56,0.99,0.92,1.55,1.09l0.01,0l0.01,0
		l0.01,0l0.01,0l0.01,0l0.01,0l0.01,0l0,0l0.01,0h0l0.01,0h0l0.01,0l0,0l0.01,0h0l0.01,0h0l0.01,0l0,0l0.01,0h0l0.01,0h0l0.01,0h0
		l0.01,0h0c0.1,0.03,0.2,0.06,0.3,0.07c0.12,0.02,0.24,0.03,0.36,0.04h0l0.02,0h0h0.01h0h0.01h0h0.01h0h0.01h0h0.01l0,0h0.01h0h0.01
		h0h0h0h0h0h0h0h0h0l0.02,0l0.01,0l0.02,0h0l0.01,0h0h0.01l0,0h0l0.01,0h0l0,0h0l0.01,0h0h0h0l0.01,0h0h0h0l0.02,0h0
		c0.07,0,0.15-0.01,0.22-0.02c0.13-0.02,0.27-0.05,0.4-0.1l0.03-0.01h0c0.58-0.16,1.1-0.52,1.58-1.07c0.06-0.07,0.11-0.14,0.16-0.21
		l2.6,2.09c-0.06,0.08-0.12,0.15-0.18,0.23c-0.89,1.05-1.94,1.78-3.42,2.06c-0.46,0.07-0.94,0.11-1.45,0.11L76.45,117.26
		L76.45,117.26z"/>
	<path class="st2" d="M48.89,95.76c1.86,0,3.37,1.51,3.37,3.37c0,1.86-1.51,3.37-3.37,3.37c-1.86,0-3.37-1.51-3.37-3.37
		C45.53,97.27,47.03,95.76,48.89,95.76L48.89,95.76z M57.32,95.76c1.86,0,3.37,1.51,3.37,3.37c0,1.86-1.51,3.37-3.37,3.37
		c-1.86,0-3.37-1.51-3.37-3.37C53.96,97.27,55.47,95.76,57.32,95.76L57.32,95.76z"/>
	<path class="st3" d="M69.79,21.83L69.79,21.83c2.56,0,4.65,2.09,4.65,4.65v17.29c0,2.56-2.09,4.65-4.65,4.65l0,0
		c-2.56,0-4.65-2.09-4.65-4.65V26.48C65.14,23.92,67.23,21.83,69.79,21.83L69.79,21.83z"/>
	<path class="st3" d="M34.66,47.35L34.66,47.35c0.79-2.43,3.43-3.78,5.86-2.99l16.45,5.34c2.43,0.79,3.78,3.43,2.99,5.86l0,0
		c-0.79,2.43-3.43,3.78-5.86,2.99l-16.45-5.34C35.21,52.42,33.87,49.78,34.66,47.35L34.66,47.35z"/>
	<path class="st3" d="M48.08,88.64L48.08,88.64c-2.07-1.5-2.53-4.43-1.03-6.5l10.16-13.99c1.5-2.07,4.43-2.53,6.5-1.03l0,0
		c2.07,1.5,2.53,4.43,1.03,6.5L54.58,87.61C53.07,89.68,50.15,90.15,48.08,88.64L48.08,88.64z"/>
	<path class="st3" d="M91.5,88.64L91.5,88.64c-2.07,1.5-4.99,1.04-6.5-1.03L74.84,73.62c-1.5-2.07-1.04-4.99,1.03-6.5l0,0
		c2.07-1.5,4.99-1.04,6.5,1.03l10.16,13.99C94.03,84.21,93.57,87.14,91.5,88.64L91.5,88.64z"/>
	<path class="st3" d="M104.92,47.35L104.92,47.35c0.79,2.43-0.55,5.07-2.99,5.86l-16.45,5.34c-2.43,0.79-5.07-0.55-5.86-2.99l0,0
		c-0.79-2.43,0.55-5.07,2.99-5.86l16.45-5.34C101.49,43.57,104.12,44.91,104.92,47.35L104.92,47.35z"/>
</g>
</svg>
