<?xml version="1.0" encoding="utf-8"?>
<!-- Generator: Adobe Illustrator 23.0.1, SVG Export Plug-In . SVG Version: 6.00 Build 0)  -->
<svg version="1.1" id="Layer_1" xmlns="http://www.w3.org/2000/svg" xmlns:xlink="http://www.w3.org/1999/xlink" x="0px" y="0px"
	 viewBox="0 0 461.79 236.91" style="enable-background:new 0 0 461.79 236.91;" xml:space="preserve">
<style type="text/css">
	.st0{fill-rule:evenodd;clip-rule:evenodd;fill:#ED1C24;}
</style>
<g>
	<path class="st0" d="M115.16,11.13H78.65l-0.76,25.8h36.68C114.9,27.23,115.16,18.63,115.16,11.13L115.16,11.13z"/>
	<path class="st0" d="M51.75,11.13H15.58c0.17,24.71-1.94,82.38-6.32,172.94l34.74,0.17C43.99,161.89,46.52,104.22,51.75,11.13
		L51.75,11.13z"/>
	<path class="st0" d="M112.8,56.32H77.47c-1.01,56.91-2.61,99.49-4.72,127.74l37.27,0.17C109.76,172.85,110.69,130.27,112.8,56.32
		L112.8,56.32z"/>
	<path class="st0" d="M132.02,55.57l-4.38,25.97l18.13-0.17l-3.2,102.7l35.92,0.17l0.93-102.53h23.61l5.23-26.39h-29.43v-3.96
		c0-10.79,1.35-17.2,3.96-18.97c3.2-2.45,13.49-3.46,30.78-3.2l4.81-24.2c-14.33-0.67-24.79-0.67-31.37,0
		c-12.56,0.84-22.26,4.3-29.01,10.71c-6.49,6.16-10.03,18.21-10.71,36.09v3.79H132.02L132.02,55.57z"/>
	<path class="st0" d="M318.87,75.38c-11.13-14-27.07-21-47.81-21c-16.95-0.34-31.53,4.3-44.01,13.83
		c-16.27,12.48-25.21,29.76-26.81,52.02c-1.43,19.9,3.63,36,15.35,48.15c10.79,11.13,26.14,17.03,45.95,17.71
		c17.62,0.51,33.64-1.01,48.23-4.38l5.14-26.39c-11.72,5.14-26.64,7.76-44.6,7.76c-16.61,0-26.9-4.81-31.11-14.33
		c-2.53-5.4-3.79-11.05-3.79-17.03l0.76-7.34h94.27l0.34-2.95C331.94,102.36,327.98,87.02,318.87,75.38L318.87,75.38z M248.04,83.31
		c5.48-5.82,12.82-8.77,22.26-8.68c9.36-0.08,16.53,3.54,21.42,10.71c3.71,5.9,5.14,12.48,4.38,19.81l-0.42,3.2l-57.76-0.25
		C238.51,98.23,241.89,89.97,248.04,83.31L248.04,83.31z"/>
	<polygon class="st0" points="391.47,90.89 392.31,56.91 352.01,56.91 351.25,90.89 391.47,90.89 	"/>
	<path class="st0" d="M439.7,36.68C431.85,17.2,426.21,4.97,422.83,0h-23.44c10.88,19.73,17.71,41.4,20.66,65.09
		c1.43,11.55,1.94,28.25,1.35,50c-0.42,27.49-6.32,55.23-17.71,83.14c-4.47,11.05-9.78,22.18-16.02,33.22h26.05
		c7-10.62,13.24-21.67,18.55-33.22c2.53-5.48,4.89-11.05,7-16.69c8.43-23.36,12.9-45.11,13.32-65.26
		C453.19,86.85,448.89,60.37,439.7,36.68L439.7,36.68z"/>
	<polygon class="st0" points="347.28,151.18 346.44,184.91 387.08,184.91 387.92,151.18 347.28,151.18 	"/>
	<polygon class="st0" points="319.12,208.1 318.87,212.06 322.66,212.06 322.83,208.1 319.12,208.1 	"/>
	<path class="st0" d="M311.7,210.29h-0.34l-3.2,0.93v3.79h-3.54l-0.25,2.95h3.63l-0.42,9.36c0,1.26,0.42,2.36,1.18,3.2
		c0.84,0.93,2.02,1.35,3.79,1.35l2.36-0.42l0.42-0.17v-3.37l-0.42,0.42c-0.51,0.34-1.1,0.59-1.77,0.59c-0.59,0-1.01-0.25-1.43-0.59
		c-0.34-0.42-0.59-1.01-0.59-1.77l0.42-8.6h3.96l0.25-2.95h-4.22L311.7,210.29L311.7,210.29z"/>
	<path class="st0" d="M330,223.78c0.34-4.13,1.94-6.16,4.72-6.16c1.85,0.08,2.7,1.85,2.61,5.31l-0.17,8.52h3.37l0.34-9.7
		c0.17-2.36-0.34-4.3-1.6-5.73c-0.93-0.93-2.28-1.43-4.13-1.43c-2.11,0-3.71,0.76-4.72,2.19v-1.77h-3.37l-0.84,16.44h3.63
		L330,223.78L330,223.78z"/>
	<polygon class="st0" points="322.41,215.01 318.87,215.01 318.28,231.45 321.65,231.45 322.41,215.01 	"/>
	<path class="st0" d="M275.45,214.84l-1.77-0.25c-1.6,0-2.95,0.67-3.96,2.02l0.17-1.6h-3.37l-0.59,16.44h3.37l0.42-7.5
		c0-4.13,1.35-6.16,4.13-6.16l1.43,0.17l0.34,0.25l0.25-3.37H275.45L275.45,214.84z"/>
	<path class="st0" d="M284.8,214.59c-5.06,0-7.67,2.78-8.01,8.35c0,3.04,0.76,5.31,2.19,6.75c1.52,1.43,3.37,2.19,5.82,2.19
		c1.18,0,2.78-0.34,4.72-1.01l0.59-0.17l0.17-3.79l-0.59,0.42c-1.43,1.01-2.95,1.6-4.55,1.6c-1.26,0-2.45-0.51-3.37-1.43
		c-0.76-0.93-1.18-2.02-1.18-3.29h10.96v-1.26c0-3.04-0.67-5.23-2.02-6.49C288.35,215.18,286.74,214.59,284.8,214.59L284.8,214.59z
		 M284.55,217.62c1.1-0.08,1.86,0.25,2.36,0.93c0.67,0.67,1.01,1.6,1.01,2.78h-7.08C281.35,218.89,282.61,217.62,284.55,217.62
		L284.55,217.62z"/>
	<path class="st0" d="M303.19,215.18h-0.17c-0.93-0.34-2.11-0.59-3.54-0.59c-3.71,0-5.73,1.77-5.99,5.23
		c-0.08,1.69,1.1,3.2,3.79,4.72c1.69,0.76,2.53,1.6,2.53,2.36c0,1.35-0.84,2.02-2.53,2.02c-1.26,0-2.36-0.42-3.37-1.18l-0.42-0.25
		l-0.42,3.37h0.25c1.18,0.67,2.61,1.01,4.3,1.01c3.88,0,5.9-1.77,5.99-5.31c0-1.94-1.35-3.54-3.96-4.97
		c-1.77-0.67-2.53-1.52-2.36-2.45c0-1.01,0.76-1.6,2.36-1.52c1.01,0,1.94,0.25,2.78,0.76l0.42,0.17L303.19,215.18L303.19,215.18z"/>
	<path class="st0" d="M351.58,214.59c-4.72,0-7.25,2.95-7.5,8.77c-0.17,2.45,0.51,4.64,1.94,6.32c1.18,1.18,2.7,1.77,4.64,1.77
		c1.94,0,3.63-0.67,4.89-1.94v0.76c-0.25,3.46-1.85,5.23-4.72,5.23c-1.1,0-2.87-0.51-5.4-1.43l-0.34-0.17l-0.42,3.29v0.08h0.17
		c2.11,0.76,3.96,1.18,5.57,1.18c2.11,0,3.88-0.42,5.23-1.26c2.11-1.26,3.29-3.46,3.54-6.66l0.59-15.51h-3.37v1.6
		C355.46,215.26,353.86,214.59,351.58,214.59L351.58,214.59z M354.37,218.55c1.18,1.18,1.69,2.78,1.43,4.81
		c0,3.37-1.52,5.14-4.38,5.14c-0.93,0-1.77-0.34-2.36-1.01c-0.93-1.18-1.43-2.61-1.43-4.3c0.25-3.71,1.69-5.56,4.38-5.56
		C352.93,217.54,353.69,217.88,354.37,218.55L354.37,218.55z"/>
	<polygon class="st0" points="368.7,225.3 369.88,209.11 365.92,209.11 365.92,225.3 368.7,225.3 	"/>
	<polygon class="st0" points="369.29,227.32 365.07,227.32 364.91,231.45 369.04,231.45 369.29,227.32 	"/>
	<path class="st0" d="M173.51,217.62c1.94,0.08,2.87,1.85,2.78,5.31l-0.42,8.52h3.54l0.42-9.7c0-2.61-0.51-4.55-1.6-5.73
		c-0.93-0.93-2.36-1.43-4.3-1.43c-2.19,0-3.71,0.76-4.81,2.19v-1.77h-3.37l-0.59,16.44h3.37l0.42-7.67
		C168.95,219.65,170.47,217.62,173.51,217.62L173.51,217.62z"/>
	<path class="st0" d="M198.46,215.01h-3.12l-0.25,1.6c-0.93-1.35-2.53-2.02-4.72-2.02c-4.81,0-7.25,2.95-7.59,8.77
		c0,2.78,0.76,4.89,2.19,6.32c1.1,1.18,2.61,1.77,4.55,1.77c1.77,0,3.37-0.67,4.97-1.94l-0.17,0.76c0,3.46-1.52,5.23-4.55,5.23
		c-1.18,0-2.95-0.51-5.4-1.43l-0.34-0.17l-0.67,3.29v0.08h0.25c2.19,0.76,4.13,1.18,5.73,1.18c2.11,0,3.88-0.42,5.14-1.26
		c2.11-1.26,3.2-3.46,3.37-6.66L198.46,215.01L198.46,215.01z M186.57,223.19c0-3.71,1.43-5.56,4.22-5.56
		c1.01-0.08,1.86,0.25,2.53,0.93c0.93,0.93,1.35,2.53,1.43,4.81c-0.34,3.37-1.77,5.14-4.38,5.14c-0.93,0-1.77-0.34-2.36-1.01
		C186.91,226.48,186.49,225.04,186.57,223.19L186.57,223.19z"/>
	<path class="st0" d="M146.95,215.01h-3.63v2.95h3.37l-0.34,9.36c-0.08,1.26,0.34,2.36,1.18,3.2c0.76,0.93,2.02,1.35,3.71,1.35
		l2.61-0.42l0.17-0.17l0.25-3.37l-0.59,0.42c-0.59,0.34-1.18,0.59-1.86,0.59c-0.51,0-0.93-0.25-1.35-0.59
		c-0.42-0.42-0.59-1.01-0.59-1.77l0.42-8.6h4.13v-2.95h-3.96l0.17-4.72h-0.59l-2.95,0.93L146.95,215.01L146.95,215.01z"/>
	<path class="st0" d="M135.14,211.22v3.79h-3.46v2.95h3.37l-0.42,9.36c0,1.26,0.34,2.36,1.18,3.2c0.76,0.93,2.02,1.35,3.79,1.35
		l2.53-0.42l0.25-0.17v-3.37l-0.42,0.42c-0.59,0.34-1.18,0.59-1.77,0.59c-0.59,0-1.01-0.25-1.43-0.59
		c-0.42-0.42-0.59-1.01-0.59-1.77l0.42-8.6h3.96l0.17-2.95h-4.13l0.17-4.72h-0.34L135.14,211.22L135.14,211.22z"/>
	<polygon class="st0" points="161.79,208.1 157.82,208.1 157.65,212.06 161.62,212.06 161.79,208.1 	"/>
	<polygon class="st0" points="161.2,215.01 157.82,215.01 157.06,231.45 160.6,231.45 161.2,215.01 	"/>
	<path class="st0" d="M242.9,210.29h-0.42l-3.12,0.93l-0.17,3.79h-3.37l-0.25,2.95h3.63l-0.42,9.36c0,1.26,0.34,2.36,1.18,3.2
		c0.76,0.93,2.02,1.35,3.79,1.35l2.36-0.42l0.17-0.17l0.25-3.37l-0.67,0.42c-0.34,0.34-1.01,0.59-1.77,0.59
		c-0.51,0-0.93-0.25-1.18-0.59c-0.42-0.42-0.59-1.01-0.59-1.77l0.17-8.6h4.22l0.17-2.95h-4.13L242.9,210.29L242.9,210.29z"/>
	<path class="st0" d="M260.94,216.44c-1.18-1.26-2.78-1.85-4.72-1.85c-5.06,0-7.67,2.78-8.01,8.35c0,3.04,0.76,5.31,2.28,6.75
		c1.43,1.43,3.29,2.19,5.73,2.19c1.18,0,2.78-0.34,4.72-1.01l0.59-0.17l0.17-3.79l-0.51,0.42c-1.1,1.01-2.61,1.6-4.55,1.6
		c-1.35,0-2.53-0.51-3.37-1.43c-0.84-0.93-1.26-2.02-1.26-3.29h10.96v-1.26C262.97,219.9,262.29,217.71,260.94,216.44L260.94,216.44
		z M255.97,217.62c1.1-0.08,1.85,0.25,2.36,0.93c0.67,0.67,1.01,1.6,1.01,2.78h-7.08C252.76,218.89,254.03,217.62,255.97,217.62
		L255.97,217.62z"/>
	<polygon class="st0" points="211.36,212.06 215.33,212.06 215.33,208.1 211.62,208.1 211.36,212.06 	"/>
	<polygon class="st0" points="214.99,215.01 211.36,215.01 210.77,231.45 214.32,231.45 214.99,215.01 	"/>
	<path class="st0" d="M222.92,215.01h-3.37l-0.59,16.44h3.37l0.34-7.67c0-4.13,1.52-6.16,4.55-6.16c1.85,0.08,2.78,1.85,2.78,5.31
		l-0.34,8.52h3.54l0.42-9.7c0-2.36-0.59-4.3-1.6-5.73c-0.93-0.93-2.36-1.43-4.38-1.43c-2.19,0-3.71,0.76-4.72,2.19V215.01
		L222.92,215.01z"/>
	<path class="st0" d="M41.21,210.12l1.18,0.17l0.42,0.17l0.17-3.2l-2.19-0.17c-3.63,0-5.48,2.19-5.73,6.75v1.18h-3.79v2.95h3.63
		l-0.67,13.49h3.63l0.59-13.49h3.96l0.17-2.95h-4.13l0.17-1.35C38.6,211.22,39.44,210.12,41.21,210.12L41.21,210.12z"/>
	<path class="st0" d="M58.24,222.94c0-2.78-0.67-4.97-1.94-6.49c-1.26-1.26-2.78-1.85-4.81-1.85c-4.97,0-7.67,2.78-7.93,8.35
		c-0.08,2.78,0.51,5.06,2.02,6.75c1.43,1.43,3.37,2.19,5.9,2.19c1.43,0,2.95-0.34,4.55-1.01l0.59-0.17l0.25-3.79l-0.59,0.42
		c-1.1,1.01-2.61,1.6-4.55,1.6c-1.26,0-2.28-0.51-3.2-1.43c-0.93-0.93-1.43-2.02-1.43-3.29h10.96l0.17-0.25V222.94L58.24,222.94z
		 M51.33,217.62c0.93-0.08,1.6,0.25,2.19,0.93c0.59,0.59,0.93,1.52,0.93,2.78h-7.08C47.87,218.89,49.22,217.62,51.33,217.62
		L51.33,217.62z"/>
	<polygon class="st0" points="29.07,208.1 25.11,208.1 25.11,212.06 28.9,212.06 29.07,208.1 	"/>
	<polygon class="st0" points="28.48,215.01 25.11,215.01 24.35,231.45 27.89,231.45 28.48,215.01 	"/>
	<polygon class="st0" points="13.81,209.11 10.1,209.11 9.26,231.45 21.73,231.45 21.73,228.08 13.05,228.08 13.81,209.11 	"/>
	<path class="st0" d="M109.59,216.61c-0.93-1.35-2.53-2.02-4.72-2.02c-4.81,0-7.25,2.95-7.5,8.77c-0.17,2.45,0.51,4.64,1.94,6.32
		c1.18,1.18,2.7,1.77,4.55,1.77c2.02,0,3.63-0.67,4.97-1.94v0.76c-0.25,3.46-1.85,5.23-4.72,5.23c-1.27,0-3.04-0.51-5.4-1.43
		l-0.42-0.17l-0.34,3.29v0.08h0.17c2.11,0.76,3.96,1.18,5.57,1.18c2.11,0,3.79-0.42,5.14-1.26c2.11-1.26,3.2-3.46,3.37-6.66
		l0.76-15.51h-3.37V216.61L109.59,216.61z M105.04,217.62c1.1-0.08,1.94,0.25,2.61,0.93c1.18,1.18,1.6,2.78,1.35,4.81
		c0,3.37-1.43,5.14-4.3,5.14c-0.93,0-1.77-0.34-2.44-1.01c-0.93-0.93-1.35-2.36-1.35-4.3C101.16,219.48,102.59,217.62,105.04,217.62
		L105.04,217.62z"/>
	<path class="st0" d="M130.25,224.2l0.17-0.25v-1.01c0-2.78-0.67-4.97-2.02-6.49c-1.1-1.26-2.7-1.85-4.72-1.85
		c-4.97,0-7.67,2.78-7.93,8.35c-0.08,2.78,0.51,5.06,2.02,6.75c1.43,1.43,3.46,2.19,5.9,2.19c1.52,0,3.04-0.34,4.64-1.01l0.51-0.17
		l0.25-3.79l-0.67,0.42c-1.01,1.01-2.53,1.6-4.47,1.6c-1.18,0-2.28-0.51-3.2-1.43c-0.93-0.93-1.35-2.02-1.35-3.29H130.25
		L130.25,224.2z M119.54,221.33c0.51-2.45,1.86-3.71,3.96-3.71c0.93-0.08,1.6,0.25,2.19,0.93c0.59,0.59,1.01,1.52,1.01,2.78H119.54
		L119.54,221.33z"/>
	<polygon class="st0" points="73.93,215.01 70.39,215.01 69.8,231.45 73.34,231.45 73.93,215.01 	"/>
	<polygon class="st0" points="70.39,212.06 74.35,212.06 74.35,208.1 70.55,208.1 70.39,212.06 	"/>
	<path class="st0" d="M76.88,219.82c-0.08,1.52,1.1,3.12,3.79,4.72c1.69,0.76,2.53,1.6,2.61,2.36c-0.08,1.35-0.93,2.02-2.61,2.02
		c-1.18,0-2.36-0.42-3.37-1.18l-0.42-0.25l-0.34,3.37h0.17c1.18,0.67,2.61,1.01,4.38,1.01c3.79,0,5.82-1.77,5.9-5.31
		c0-1.94-1.26-3.54-3.96-4.97c-1.69-0.67-2.53-1.52-2.36-2.45c0-1.01,0.76-1.6,2.36-1.52c1.1,0,2.02,0.25,2.78,0.76l0.42,0.17
		l0.59-3.37h-0.42c-0.93-0.34-2.11-0.59-3.54-0.59C79.15,214.59,77.13,216.36,76.88,219.82L76.88,219.82z"/>
</g>
</svg>
