<?xml version="1.0" encoding="utf-8"?>
<!-- Generator: Adobe Illustrator 23.0.1, SVG Export Plug-In . SVG Version: 6.00 Build 0)  -->
<svg version="1.1" id="Layer_1" xmlns="http://www.w3.org/2000/svg" xmlns:xlink="http://www.w3.org/1999/xlink" x="0px" y="0px"
	 viewBox="0 0 150.02 101.68" style="enable-background:new 0 0 150.02 101.68;" xml:space="preserve">
<style type="text/css">
	.st0{fill:#272361;}
	.st1{fill:url(#SVGID_1_);}
	.st2{fill:url(#SVGID_2_);}
	.st3{fill:url(#SVGID_3_);}
	.st4{fill:url(#SVGID_4_);}
	.st5{fill:#F04F27;}
	.st6{fill:#9C9980;}
	.st7{fill:#010101;}
</style>
<g>
	<rect x="123" y="61.42" class="st0" width="2.99" height="3.18"/>
	<g>
		
			<linearGradient id="SVGID_1_" gradientUnits="userSpaceOnUse" x1="23.8855" y1="67.4507" x2="123.8107" y2="67.4507" gradientTransform="matrix(-1 0 0 -1 147.9599 130.2367)">
			<stop  offset="0" style="stop-color:#EC2227"/>
			<stop  offset="0.1788" style="stop-color:#F89521"/>
			<stop  offset="0.3492" style="stop-color:#FCEE23"/>
			<stop  offset="0.5335" style="stop-color:#05A650"/>
			<stop  offset="0.7123" style="stop-color:#76D1F5"/>
			<stop  offset="0.8687" style="stop-color:#2E368F"/>
			<stop  offset="1" style="stop-color:#6B4099"/>
		</linearGradient>
		<rect x="24.15" y="57.62" class="st1" width="99.93" height="10.33"/>
		
			<linearGradient id="SVGID_2_" gradientUnits="userSpaceOnUse" x1="23.8855" y1="65.7112" x2="123.8107" y2="65.7112" gradientTransform="matrix(-1 0 0 -1 147.9599 130.2367)">
			<stop  offset="0" style="stop-color:#EC2227"/>
			<stop  offset="0.1788" style="stop-color:#F89521"/>
			<stop  offset="0.3492" style="stop-color:#FCEE23"/>
			<stop  offset="0.5335" style="stop-color:#05A650"/>
			<stop  offset="0.7123" style="stop-color:#76D1F5"/>
			<stop  offset="0.8687" style="stop-color:#2E368F"/>
			<stop  offset="1" style="stop-color:#6B4099"/>
		</linearGradient>
		<rect x="24.15" y="64.01" class="st2" width="99.93" height="1.03"/>
		
			<linearGradient id="SVGID_3_" gradientUnits="userSpaceOnUse" x1="23.8855" y1="70.7741" x2="123.8107" y2="70.7741" gradientTransform="matrix(-1 0 0 -1 147.9599 130.2367)">
			<stop  offset="0" style="stop-color:#EC2227"/>
			<stop  offset="0.1788" style="stop-color:#F89521"/>
			<stop  offset="0.3492" style="stop-color:#FCEE23"/>
			<stop  offset="0.5335" style="stop-color:#05A650"/>
			<stop  offset="0.7123" style="stop-color:#76D1F5"/>
			<stop  offset="0.8687" style="stop-color:#2E368F"/>
			<stop  offset="1" style="stop-color:#6B4099"/>
		</linearGradient>
		<rect x="24.15" y="57.62" class="st3" width="99.93" height="3.68"/>
		
			<linearGradient id="SVGID_4_" gradientUnits="userSpaceOnUse" x1="74.2634" y1="72.6146" x2="74.2634" y2="62.0947" gradientTransform="matrix(-1 0 0 -1 147.9599 130.2367)">
			<stop  offset="0.486" style="stop-color:#FFFFFF;stop-opacity:0.02"/>
			<stop  offset="1" style="stop-color:#010101;stop-opacity:0.6"/>
		</linearGradient>
		<polygon class="st4" points="24.15,57.62 123.24,57.62 123.24,68.14 24.15,68.14 		"/>
	</g>
	<g>
		<g>
			<path class="st5" d="M69.57,31.61l0.17-0.92c0.19-1.08,0.02-1.47,0.02-1.47s0.26-0.15,0.89-0.15c1.32,0,1.47,0.5,1.26,1.69
				l-0.15,0.85h1.69c0,0,0.12,0.14,0.12,0.36c0,0.29-0.2,0.5-0.58,0.5H71.6l-0.79,4.44c-0.21,1.16,0.14,1.76,0.8,1.76
				c0.68,0,0.96-0.48,0.96-0.48c0.19,0,0.31,0.19,0.27,0.44c-0.09,0.75-1.01,1.52-2.19,1.52c-1.13,0-2.07-0.85-2.07-2.22
				c0-0.39,0.03-0.99,0.19-1.86l0.63-3.61H68.3c0,0-0.12-0.14-0.12-0.36c0-0.29,0.21-0.5,0.58-0.5H69.57z"/>
		</g>
		<g>
			<path class="st5" d="M75.55,29.05c0.22,0,0.44,0.05,0.65,0.16c0.28,0.15,0.49,0.37,0.63,0.66c0.1,0.21,0.15,0.44,0.15,0.68
				c0,0.44-0.17,0.8-0.5,1.08c-0.26,0.21-0.55,0.32-0.88,0.32c-0.36,0-0.67-0.12-0.93-0.36c-0.3-0.28-0.45-0.65-0.45-1.12
				c0-0.46,0.14-0.81,0.41-1.07C74.88,29.17,75.18,29.05,75.55,29.05z M75.49,29.78c-0.15,0-0.23,0.13-0.23,0.39
				c0,0.34,0.07,0.64,0.19,0.91c0.05,0.1,0.12,0.16,0.2,0.16c0.15,0,0.22-0.13,0.22-0.4c0-0.15-0.02-0.3-0.05-0.47
				c-0.03-0.17-0.07-0.3-0.12-0.41C75.66,29.85,75.59,29.79,75.49,29.78z"/>
		</g>
	</g>
	<g>
		<path class="st5" d="M74.27,36.04c0.32-0.65,0.85-1.21,1.6-1.41c0.99-0.26,1.19,0.2,2.27,0.99c0.62,0.45,0.88,0.74,1.75,0.75
			c1.43,0.01,2.58-0.64,3.2-1.94c0.11-0.23-0.23-0.43-0.34-0.2c-1,2.08-2.84,2-4.55,0.76c-0.55-0.4-0.74-0.79-1.53-0.84
			c-1.18-0.08-2.23,0.67-2.74,1.69C73.81,36.07,74.15,36.27,74.27,36.04L74.27,36.04z"/>
	</g>
	<g>
		<path class="st5" d="M74.27,38.26c0.32-0.65,0.85-1.21,1.6-1.41c0.99-0.26,1.19,0.2,2.27,0.99c0.62,0.45,0.88,0.74,1.75,0.75
			c1.43,0.01,2.58-0.64,3.2-1.94c0.11-0.23-0.23-0.43-0.34-0.2c-1,2.08-2.84,2-4.55,0.76c-0.55-0.4-0.74-0.79-1.53-0.84
			c-1.18-0.08-2.23,0.67-2.74,1.69C73.81,38.29,74.15,38.49,74.27,38.26L74.27,38.26z"/>
	</g>
	<rect x="24.15" y="57.81" class="st6" width="1.66" height="10.33"/>
	<rect x="120.9" y="57.81" class="st6" width="2.75" height="10.33"/>
	<g>
		<path class="st5" d="M69.14,27.09c-0.08,0.09-0.28,0.26-0.28,0.26c-1.58,1.02-3.08,2.09-4.64,3.04c-0.5,0.31-1.09,0.53-1.67,0.66
			c-0.32,0.07-0.87-0.02-1.02-0.24c-0.3-0.44,0.19-0.67,0.51-0.89c3.66-2.51,6.78-5.56,9.08-9.38c0.41-0.68,0.59-1.55,0.69-2.36
			c0.15-1.17,0.69-1.55,1.71-0.93c0.45,0.27,0.85,0.65,1.2,1.05c0.44,0.5,0.39,0.8-0.08,1.6c3.36,3.27,6.89,6.29,11.5,7.65
			c0.35,0.1,0.72,0.22,1.03,0.42c0.19,0.11,0.38,0.38,0.38,0.58c0,0.2-0.21,0.52-0.39,0.57c-1.71,0.42-3.44,0.93-5.2,0.59
			c-0.68-0.13-1.38-0.68-1.88-1.22c-1.9-2.04-3.72-4.15-5.57-6.22c-0.26-0.29-0.58-0.53-0.86-0.77
			C72.27,23.25,70.63,25.2,69.14,27.09"/>
		<path class="st5" d="M72.12,28.86"/>
	</g>
	<g>
		<g>
			<path class="st7" d="M27.25,51.04h-0.66v-1.19h0.66v-1.88h1.34v1.88h0.81v1.19h-0.81v4.4h-1.34V51.04z"/>
			<path class="st7" d="M31.27,53.24c0.17,0.69,0.75,1.11,1.46,1.11c0.43,0,0.92-0.12,1.25-0.52h1.51c-0.75,1.78-2.45,1.8-2.71,1.8
				c-2.01,0-2.96-1.65-2.96-2.94c0-1.28,0.96-3.02,2.98-3.02c1.7,0,2.87,1.31,2.87,2.98c0,0.2,0,0.39-0.03,0.6H31.27z M34.28,52.05
				c-0.19-0.71-0.79-1.11-1.47-1.11c-0.74,0-1.33,0.44-1.55,1.11H34.28z"/>
			<path class="st7" d="M36.53,49.85h1.23v0.73h0.02c0.47-0.78,1.36-0.91,1.8-0.91c1.52,0,2.8,1.17,2.8,2.98
				c0,1.53-1.03,2.98-2.8,2.98c-0.45,0-1.16-0.12-1.68-0.79h-0.02v2.47h-1.34V49.85z M37.79,52.64c0,1.07,0.69,1.7,1.59,1.7
				c0.96,0,1.65-0.73,1.65-1.71c0-0.75-0.47-1.69-1.6-1.69C38.45,50.94,37.79,51.66,37.79,52.64z"/>
			<path class="st7" d="M43.18,47.97h1.34v7.46h-1.34V47.97z"/>
			<path class="st7" d="M51.25,52.65c0,1.62-1.26,2.97-2.97,2.97c-1.7,0-2.97-1.34-2.97-2.97c0-1.63,1.25-2.99,2.97-2.99
				C50,49.66,51.25,51.02,51.25,52.65z M46.66,52.65c0,0.91,0.64,1.69,1.62,1.69c0.99,0,1.62-0.79,1.62-1.69s-0.62-1.71-1.62-1.71
				C47.29,50.94,46.66,51.74,46.66,52.65z"/>
			<path class="st7" d="M55.04,51.63v1.19h-2.8v-1.19H55.04z"/>
			<path class="st7" d="M55.76,49.85h1.49l1.29,3.67l1.29-3.67h1.49l-2.26,5.59h-1.05L55.76,49.85z"/>
			<path class="st7" d="M67.31,52.65c0,1.62-1.26,2.97-2.97,2.97c-1.7,0-2.97-1.34-2.97-2.97c0-1.63,1.25-2.99,2.97-2.99
				C66.06,49.66,67.31,51.02,67.31,52.65z M62.72,52.65c0,0.91,0.64,1.69,1.62,1.69c0.99,0,1.62-0.79,1.62-1.69
				s-0.63-1.71-1.62-1.71C63.35,50.94,62.72,51.74,62.72,52.65z"/>
			<path class="st7" d="M73.69,55.43h-1.23v-0.76h-0.02c-0.35,0.49-0.94,0.94-1.84,0.94c-1.49,0-2.76-1.25-2.76-2.96
				c0-1.76,1.27-3,2.8-3c1.03,0,1.52,0.56,1.68,0.76h0.02v-2.45h1.34V55.43z M69.18,52.64c0,0.97,0.66,1.7,1.61,1.7
				c0.95,0,1.63-0.72,1.63-1.7c0-0.99-0.7-1.7-1.63-1.7C69.89,50.94,69.18,51.62,69.18,52.64z"/>
			<path class="st7" d="M80.35,55.43h-1.23v-0.76H79.1c-0.65,0.89-1.57,0.94-1.87,0.94c-1.42,0-2.73-1.12-2.73-2.93
				c0-1.76,1.23-3.03,2.77-3.03c0.8,0,1.42,0.33,1.83,0.97h0.02v-0.79h1.23V55.43z M75.84,52.69c0,0.95,0.67,1.65,1.64,1.65
				c0.96,0,1.6-0.7,1.6-1.71c0-0.97-0.64-1.69-1.6-1.69C76.51,50.94,75.84,51.68,75.84,52.69z"/>
			<path class="st7" d="M81.63,54.09h1.34v1.34h-1.34V54.09z"/>
			<path class="st7" d="M89.87,53.62c-0.41,1.18-1.37,2-2.76,2c-2.1,0-3.09-1.62-3.09-3.02c0-1.3,0.95-2.94,3.04-2.94
				c1.41,0,2.44,0.83,2.81,2.04h-1.51c-0.26-0.51-0.74-0.77-1.32-0.77c-1.07,0-1.67,0.79-1.67,1.68c0,0.96,0.65,1.72,1.67,1.72
				c0.23,0,0.95-0.04,1.32-0.73H89.87z"/>
			<path class="st7" d="M96.37,52.65c0,1.62-1.26,2.97-2.97,2.97s-2.97-1.34-2.97-2.97c0-1.63,1.25-2.99,2.97-2.99
				S96.37,51.02,96.37,52.65z M91.78,52.65c0,0.91,0.64,1.69,1.62,1.69s1.62-0.79,1.62-1.69s-0.63-1.71-1.62-1.71
				S91.78,51.74,91.78,52.65z"/>
			<path class="st7" d="M97.17,49.85h1.23v0.51h0.02c0.39-0.55,1.03-0.7,1.45-0.7c0.56,0,1.25,0.24,1.63,0.87
				c0.32-0.44,0.88-0.87,1.79-0.87c1.36,0,2.28,0.93,2.28,2.5v3.27h-1.34v-2.97c0-0.5-0.06-1.53-1.1-1.53
				c-1.03,0-1.09,1.03-1.09,1.53v2.97h-1.34v-2.97c0-0.5-0.06-1.53-1.1-1.53c-1.03,0-1.09,1.03-1.09,1.53v2.97h-1.34V49.85z"/>
			<path class="st7" d="M106.85,54.09h1.34v1.34h-1.34V54.09z"/>
			<path class="st7" d="M114.44,55.43h-1.23v-0.51h-0.02c-0.48,0.61-1.11,0.7-1.45,0.7c-2.11,0-2.26-1.87-2.26-2.74v-3.03h1.34v2.84
				c0,0.63,0.06,1.65,1.14,1.65s1.14-1.03,1.14-1.65v-2.84h1.34V55.43z"/>
			<path class="st7" d="M121.1,55.43h-1.23v-0.76h-0.02c-0.65,0.89-1.57,0.94-1.87,0.94c-1.42,0-2.73-1.12-2.73-2.93
				c0-1.76,1.23-3.03,2.77-3.03c0.8,0,1.42,0.33,1.83,0.97h0.02v-0.79h1.23V55.43z M116.59,52.69c0,0.95,0.67,1.65,1.64,1.65
				c0.96,0,1.6-0.7,1.6-1.71c0-0.97-0.64-1.69-1.6-1.69C117.27,50.94,116.59,51.68,116.59,52.69z"/>
		</g>
	</g>
	<g>
		<path class="st7" d="M32.18,74.39h0.42v1.52h-0.54v-1.03h-3.47v1.03h-0.54v-1.52h0.42l1.57-3.53h0.59L32.18,74.39z M31.6,74.39
			l-1.27-2.92l-1.27,2.92H31.6z"/>
		<path class="st7" d="M37.19,72.87c0,1.2-0.92,2.1-2.1,2.1s-2.1-0.9-2.1-2.1c0-1.2,0.91-2.11,2.1-2.11
			C36.28,70.76,37.19,71.67,37.19,72.87z M33.53,72.87c0,0.91,0.65,1.61,1.56,1.61s1.56-0.7,1.56-1.61c0-0.91-0.65-1.62-1.56-1.62
			S33.53,71.96,33.53,72.87z"/>
		<path class="st7" d="M41.9,73.7c-0.27,0.6-0.85,1.27-1.96,1.27c-1.37,0-2.15-1.06-2.15-2.11c0-0.96,0.74-2.1,2.15-2.1
			c0.93,0,1.65,0.52,1.96,1.32H41.3c-0.4-0.79-1.17-0.82-1.35-0.82c-0.93,0-1.6,0.71-1.6,1.6c0,0.92,0.73,1.62,1.6,1.62
			c0.55,0,1.07-0.27,1.35-0.78H41.9z"/>
		<path class="st7" d="M44.96,70.86v0.49h-1.04v3.53h-0.54v-3.53h-1.04v-0.49H44.96z"/>
		<path class="st7" d="M48.93,70.86l-2.32,5.43h-0.58l0.67-1.6l-1.58-3.84h0.65l1.26,3.13l1.32-3.13H48.93z"/>
		<path class="st7" d="M52.79,70.86v4.02h-0.54v-3.53h-2.25v3.53h-0.54v-4.02H52.79z"/>
		<path class="st7" d="M54.26,70.86v1.71h2.25v-1.71h0.54v4.02h-0.54v-1.82h-2.25v1.82h-0.54v-4.02H54.26z"/>
		<path class="st7" d="M62.08,74.88h-0.51v-0.75h-0.02c-0.23,0.35-0.69,0.85-1.57,0.85c-1.21,0-2.15-0.88-2.15-2.13
			c0-0.96,0.7-2.08,2.14-2.08c0.35,0,1.09,0.05,1.58,0.79h0.02v-0.7h0.51V74.88z M58.37,72.89c0,0.92,0.75,1.6,1.61,1.6
			c0.88,0,1.58-0.71,1.58-1.59c0-0.91-0.68-1.64-1.6-1.64C59.09,71.25,58.37,71.95,58.37,72.89z"/>
		<path class="st7" d="M65.26,70.86v1.71h2.25v-1.71h0.54v4.02h-0.54v-1.82h-2.25v1.82h-0.54v-4.02H65.26z"/>
		<path class="st7" d="M73.08,74.88h-0.51v-0.75h-0.01c-0.23,0.35-0.69,0.85-1.57,0.85c-1.21,0-2.15-0.88-2.15-2.13
			c0-0.96,0.7-2.08,2.14-2.08c0.35,0,1.1,0.05,1.58,0.79h0.01v-0.7h0.51V74.88z M69.37,72.89c0,0.92,0.75,1.6,1.61,1.6
			c0.88,0,1.58-0.71,1.58-1.59c0-0.91-0.68-1.64-1.6-1.64C70.09,71.25,69.37,71.95,69.37,72.89z"/>
		<path class="st7" d="M74.55,70.86v3.25l2.4-3.25h0.54v4.02h-0.54v-3.25l-2.4,3.25H74v-4.02H74.55z M75.09,69.44
			c0.06,0.35,0.35,0.51,0.65,0.51c0.3,0,0.59-0.16,0.65-0.51h0.46c-0.07,0.41-0.38,0.93-1.12,0.93s-1.04-0.51-1.12-0.93H75.09z"/>
		<path class="st7" d="M79.86,70.86c0.94,0,1.19,0.59,1.19,1.07c0,0.38-0.21,0.69-0.54,0.83c0.41,0.11,0.68,0.49,0.68,0.96
			c0,0.62-0.44,1.16-1.29,1.16h-1.49v-4.02H79.86z M78.96,72.57h0.86c0.43,0,0.68-0.25,0.68-0.64c0-0.59-0.56-0.58-0.68-0.58h-0.86
			V72.57z M78.96,74.39h0.88c0.64,0,0.81-0.38,0.81-0.66c0-0.17-0.05-0.66-0.81-0.66h-0.88V74.39z"/>
		<path class="st7" d="M82.49,70.86v3.25l2.4-3.25h0.54v4.02h-0.54v-3.25l-2.4,3.25h-0.54v-4.02H82.49z"/>
		<path class="st7" d="M86.9,70.86v3.53h1.73v-3.53h0.54v3.53h1.73v-3.53h0.54v3.53h0.67v1.52h-0.54v-1.03h-5.23v-4.02H86.9z"/>
		<path class="st7" d="M96.78,74.88h-0.52v-0.75h-0.01c-0.23,0.35-0.69,0.85-1.57,0.85c-1.21,0-2.15-0.88-2.15-2.13
			c0-0.96,0.7-2.08,2.14-2.08c0.35,0,1.1,0.05,1.58,0.79h0.01v-0.7h0.52V74.88z M93.07,72.89c0,0.92,0.75,1.6,1.61,1.6
			c0.88,0,1.58-0.71,1.58-1.59c0-0.91-0.68-1.64-1.6-1.64C93.79,71.25,93.07,71.95,93.07,72.89z"/>
		<path class="st7" d="M102.31,74.88h-0.54v-3.53h-1.08c-0.12,0-0.94,0.01-0.94,0.86c0,0.45,0.26,0.81,0.94,0.81h0.55l-1.34,1.86
			h-0.62l1.1-1.43c-0.69-0.05-1.17-0.57-1.17-1.26c0-0.68,0.52-1.32,1.49-1.32h1.62V74.88z"/>
		<path class="st7" d="M103.24,74.88v-4.02h0.54v4.02H103.24z M104.1,72.84l1.57-1.98h0.64l-1.54,1.94l1.65,2.08h-0.7L104.1,72.84z"
			/>
		<path class="st7" d="M106.92,69.44h0.54v0.93h-0.54V69.44z M106.92,70.86h0.54v4.02h-0.54V70.86z"/>
		<path class="st7" d="M112.34,73.7c-0.27,0.6-0.85,1.27-1.96,1.27c-1.37,0-2.15-1.06-2.15-2.11c0-0.96,0.74-2.1,2.15-2.1
			c0.93,0,1.65,0.52,1.96,1.32h-0.61c-0.4-0.79-1.17-0.82-1.35-0.82c-0.93,0-1.6,0.71-1.6,1.6c0,0.92,0.73,1.62,1.6,1.62
			c0.55,0,1.07-0.27,1.35-0.78H112.34z"/>
		<path class="st7" d="M115.39,70.86v0.49h-1.04v3.53h-0.54v-3.53h-1.04v-0.49H115.39z"/>
		<path class="st7" d="M116.49,70.86v1.54h1.08c1.09,0,1.37,0.78,1.37,1.24c0,0.46-0.28,1.24-1.37,1.24h-1.63v-4.02H116.49z
			 M116.49,74.39h1.07c0.57,0,0.83-0.36,0.83-0.75s-0.26-0.75-0.83-0.75h-1.07V74.39z"/>
	</g>
	<path class="st5" d="M73.36,42.35l3.29-0.27c0.8-0.08,1.58-0.14,2.35-0.23c2.12-0.24,4.22-0.65,6.37-0.6
		c0.75,0.02,1.48,0.1,2.18,0.38c1.09,0.44,1.78,1.53,1.64,2.57c-9.19-0.77-18.29-0.17-27.2,1.78c-0.36-0.21-0.66-0.39-0.97-0.55
		c-0.16-0.09-0.35-0.13-0.51-0.21c-0.4-0.2-0.52-0.53-0.45-0.97C64.48,43.63,68.91,42.99,73.36,42.35"/>
</g>
</svg>
