<?xml version="1.0" encoding="utf-8"?>
<!-- Generator: Adobe Illustrator 23.0.1, SVG Export Plug-In . SVG Version: 6.00 Build 0)  -->
<svg version="1.1" id="Layer_1" xmlns="http://www.w3.org/2000/svg" xmlns:xlink="http://www.w3.org/1999/xlink" x="0px" y="0px"
	 viewBox="0 0 163.21 163.21" style="enable-background:new 0 0 163.21 163.21;" xml:space="preserve">
<style type="text/css">
	.st0{fill:#ED1C24;}
	.st1{fill:#FFFFFF;}
</style>
<polygon class="st0" points="163.21,163.21 0,163.21 0,0 163.21,0 163.21,163.21 "/>
<g>
	<polygon class="st1" points="17.92,62.01 35.11,62.01 40.72,85.06 40.81,85.06 46.43,62.01 63.6,62.01 63.6,101.19 52.18,101.19 
		52.18,76.04 52.06,76.04 45.27,101.19 36.26,101.19 29.45,76.04 29.35,76.04 29.35,101.19 17.92,101.19 17.92,62.01 	"/>
	<polygon class="st1" points="81.16,72.04 70.19,72.04 70.19,62.01 104.23,62.01 104.23,72.04 93.23,72.04 93.23,101.19 
		81.16,101.19 81.16,72.04 	"/>
	<path class="st1" d="M133.38,76.59c-0.22-1.41-1.33-5.76-6.3-5.76c-5.67,0-7.48,5.49-7.48,10.78c0,5.27,1.82,10.75,7.48,10.75
		c4.04,0,5.65-2.85,6.35-6.55h11.86c0,7.91-6.43,16.32-17.9,16.32c-12.69,0-19.86-8.95-19.86-20.52c0-12.36,7.79-20.53,19.86-20.53
		c10.77,0.04,16.7,5.69,17.72,15.51H133.38L133.38,76.59z"/>
</g>
</svg>
