<?xml version="1.0" encoding="utf-8"?>
<!-- Generator: Adobe Illustrator 23.0.1, SVG Export Plug-In . SVG Version: 6.00 Build 0)  -->
<svg version="1.1" id="Layer_1" xmlns="http://www.w3.org/2000/svg" xmlns:xlink="http://www.w3.org/1999/xlink" x="0px" y="0px"
	 viewBox="0 0 295.9 279.24" style="enable-background:new 0 0 295.9 279.24;" xml:space="preserve">
<style type="text/css">
	.st0{fill:#FFFFFF;}
</style>
<path class="st0" d="M113.41,24c6.27,1.49,12.75,2.39,18.78,4.56c47.98,17.31,66.6,72.72,38.8,115.42c-2.9,4.45-0.47,6.63,2.15,9.27
	c25.59,25.76,51.18,51.53,76.8,77.26c1.29,1.29,2.87,2.29,4.25,3.38c-5.22,4.91-9.77,9.19-14.84,13.97
	c-27.79-27.98-56.36-56.73-84.99-85.56c-10.84,7.93-21.97,12.73-34.26,15.13c-41.96,8.19-84.69-22.97-89.74-65.6
	c-0.15-1.3-0.62-2.55-0.94-3.83c0-4.33,0-8.67,0-13c0.31-1.26,0.72-2.5,0.91-3.77c3.95-26.9,17.94-46.89,42.25-58.81
	c8.59-4.21,18.52-5.69,27.84-8.42C104.74,24,109.07,24,113.41,24z M43.39,101.08c-0.08,34.93,28.4,63.61,63.33,63.77
	c34.34,0.16,63.29-28.67,63.54-63.27c0.25-34.67-28.61-63.57-63.51-63.6C72.06,37.95,43.48,66.41,43.39,101.08z"/>
<path class="st0" d="M71.1,93.88c-4.52,0-8.79,0-13.05,0C56.9,74.18,78.22,52.7,99.23,52.43c0,4.27,0,8.55,0,13.19
	C83.67,68.46,74.1,77.62,71.1,93.88z"/>
</svg>
