<?xml version="1.0" encoding="utf-8"?>
<!-- Generator: Adobe Illustrator 23.0.1, SVG Export Plug-In . SVG Version: 6.00 Build 0)  -->
<svg version="1.1" id="Layer_1" xmlns="http://www.w3.org/2000/svg" xmlns:xlink="http://www.w3.org/1999/xlink" x="0px" y="0px"
	 viewBox="0 0 206.69 224.59" style="enable-background:new 0 0 206.69 224.59;" xml:space="preserve">
<style type="text/css">
	.st0{fill:#834A96;}
</style>
<g>
	<path class="st0" d="M105.63,0c4.07,0.36,8.13,0.85,12.2,1.06c16.93,0.85,33.32,3.98,48.99,10.68
		c19.55,8.36,30.04,23.89,35.28,43.76c4.05,15.34,4.84,30.96,4.53,46.72c-0.29,14.98-1.04,29.91-5.26,44.39
		c-6.84,23.45-22.36,37.88-45.84,44.4c-20.29,5.64-40.96,7.61-61.81,6.39c-6.53-0.38-9.97,1.58-13.63,6.24
		c-4.93,6.27-10.5,12.04-16.01,17.83c-2.5,2.62-5.63,4.24-9.4,2.21c-3.1-1.67-4.2-4.5-4.24-7.8c-0.08-7.25-0.14-14.49-0.06-21.74
		c0.03-2.5-0.85-3.87-3.27-4.66c-25.04-8.23-38.33-26.51-43.94-51.41C0.43,125.94-0.02,113.63,0,101.28
		c0.02-15.1,0.57-30.13,4.12-44.94c6.51-27.19,23.93-43.2,50.55-50.04C66.04,3.38,77.52,1.35,89.29,1c1.96-0.06,3.9-0.66,5.85-1
		C98.63,0,102.13,0,105.63,0z M56.77,217.04c0.31,0.15,0.61,0.31,0.92,0.46c2-2.11,4.05-4.18,5.99-6.34
		c7.87-8.72,15.64-17.53,23.65-26.12c1.26-1.35,3.59-2.46,5.39-2.42c18.92,0.38,37.52-1.45,55.96-5.98
		c20.33-4.99,33.68-16.98,38.97-37.17c2.13-8.12,3.11-16.63,3.85-25.02c1.58-17.96,1.45-35.92-3.25-53.51
		c-4.07-15.23-10.95-28.52-26.6-34.99c-4.72-1.95-9.5-3.82-14.4-5.23c-16.96-4.88-34.38-5.6-51.9-5.29
		c-14.05,0.25-27.77,2.36-41.12,6.85C35.86,28.45,23.98,40.9,19.23,59.62c-2.07,8.15-3.01,16.62-3.91,25.01
		c-1.63,15.21-1.32,30.43,1.55,45.48c4.14,21.71,15.05,38.14,36.91,45.51c2.5,0.84,2.81,2.33,2.8,4.51c-0.05,11-0.03,22-0.01,33
		C56.57,214.43,56.7,215.73,56.77,217.04z"/>
	<path class="st0" d="M64.13,46.64c2.68,1.42,5.34,2.01,6.63,3.66c5.29,6.76,10.57,13.59,15.04,20.89c3.1,5.07,2.03,7.48-2.5,11.34
		c-7.79,6.65-8.61,10.07-3.93,19.31c5.62,11.09,14.3,19.15,25.55,24.34c6.71,3.1,9.25,2.28,13.76-3.59
		c4.9-6.38,8.73-7.29,15.29-2.81c6.17,4.21,12.01,8.93,17.96,13.47c2.67,2.04,3.82,5.04,2.65,8c-3.01,7.67-7.91,14.06-15.82,17.03
		c-2.6,0.98-6.33,0.61-8.99-0.49C90.9,141.6,63.64,113.86,48.21,74.66c-4.38-11.14-3.34-14.4,6.21-21.77
		C57.4,50.59,60.76,48.79,64.13,46.64z"/>
	<path class="st0" d="M102.16,47.66c11.91-0.11,22.65,3.53,31.94,11.24c13.3,11.04,18.13,25.69,17.11,42.59
		c-0.57-4.16-1.04-8.33-1.74-12.47c-3.88-22.8-21.72-38.59-44.94-39.84c-0.89-0.05-1.77-0.27-2.66-0.42
		C101.96,48.39,102.06,48.02,102.16,47.66z"/>
	<path class="st0" d="M105.51,62.3c5.55-2.4,17.51,2.04,23.77,8.28c7.03,7.02,9.96,15.56,9.06,25.56
		C136.82,76.07,126.28,64.61,105.51,62.3z"/>
	<path class="st0" d="M110.8,76.01c8.77-1.25,15.98,6.71,14.09,15.43C123.87,82.92,119.78,77.26,110.8,76.01z"/>
</g>
</svg>
